<mxfile host="app.diagrams.net" modified="2024-06-08T14:06:20.893Z" agent="Mozilla/5.0 (Windows NT 10.0; Win64; x64) AppleWebKit/537.36 (KHTML, like Gecko) Chrome/125.0.0.0 Safari/537.36" etag="TO57ooVixjvZe9c31wY2" version="24.4.10" type="device">
  <diagram name="Página-1" id="nGmvFkJBDdYGN5a6zsAC">
    <mxGraphModel dx="880" dy="468" grid="1" gridSize="10" guides="1" tooltips="1" connect="1" arrows="1" fold="1" page="1" pageScale="1" pageWidth="1390" pageHeight="980" math="0" shadow="0">
      <root>
        <mxCell id="0" />
        <mxCell id="1" parent="0" />
        <mxCell id="MeGF1b_iHPwc-YLpwdY9-60" value="" style="edgeStyle=orthogonalEdgeStyle;rounded=0;orthogonalLoop=1;jettySize=auto;html=1;" parent="1" source="MeGF1b_iHPwc-YLpwdY9-55" target="MeGF1b_iHPwc-YLpwdY9-59" edge="1">
          <mxGeometry relative="1" as="geometry" />
        </mxCell>
        <mxCell id="crsZTfP_8VAFgFiVn4Fk-53" style="edgeStyle=orthogonalEdgeStyle;rounded=0;orthogonalLoop=1;jettySize=auto;html=1;exitX=1;exitY=0.5;exitDx=0;exitDy=0;" parent="1" source="MeGF1b_iHPwc-YLpwdY9-55" edge="1">
          <mxGeometry relative="1" as="geometry">
            <mxPoint x="740" y="414.42857142857156" as="targetPoint" />
          </mxGeometry>
        </mxCell>
        <mxCell id="MeGF1b_iHPwc-YLpwdY9-55" value="&lt;b&gt;Formulário de Pedido&lt;/b&gt;" style="rounded=0;whiteSpace=wrap;html=1;" parent="1" vertex="1">
          <mxGeometry x="525" y="384" width="120" height="60" as="geometry" />
        </mxCell>
        <mxCell id="MeGF1b_iHPwc-YLpwdY9-122" style="edgeStyle=orthogonalEdgeStyle;rounded=0;orthogonalLoop=1;jettySize=auto;html=1;exitX=0.5;exitY=0;exitDx=0;exitDy=0;" parent="1" source="MeGF1b_iHPwc-YLpwdY9-57" edge="1">
          <mxGeometry relative="1" as="geometry">
            <mxPoint x="820.6666666666667" y="95" as="targetPoint" />
            <Array as="points">
              <mxPoint x="810" y="235" />
              <mxPoint x="821" y="235" />
            </Array>
          </mxGeometry>
        </mxCell>
        <mxCell id="MeGF1b_iHPwc-YLpwdY9-125" style="edgeStyle=orthogonalEdgeStyle;rounded=0;orthogonalLoop=1;jettySize=auto;html=1;exitX=0.5;exitY=0;exitDx=0;exitDy=0;entryX=1;entryY=0.5;entryDx=0;entryDy=0;" parent="1" source="MeGF1b_iHPwc-YLpwdY9-57" target="MeGF1b_iHPwc-YLpwdY9-124" edge="1">
          <mxGeometry relative="1" as="geometry">
            <Array as="points">
              <mxPoint x="810" y="235" />
              <mxPoint x="750" y="235" />
            </Array>
          </mxGeometry>
        </mxCell>
        <mxCell id="crsZTfP_8VAFgFiVn4Fk-42" style="edgeStyle=orthogonalEdgeStyle;rounded=0;orthogonalLoop=1;jettySize=auto;html=1;exitX=0.5;exitY=1;exitDx=0;exitDy=0;" parent="1" source="MeGF1b_iHPwc-YLpwdY9-57" edge="1">
          <mxGeometry relative="1" as="geometry">
            <mxPoint x="810" y="565" as="targetPoint" />
          </mxGeometry>
        </mxCell>
        <mxCell id="MeGF1b_iHPwc-YLpwdY9-57" value="Funcionalidade" style="whiteSpace=wrap;html=1;rounded=0;strokeColor=#b85450;fillColor=#f8cecc;" parent="1" vertex="1">
          <mxGeometry x="750" y="379" width="120" height="60" as="geometry" />
        </mxCell>
        <mxCell id="MeGF1b_iHPwc-YLpwdY9-62" value="" style="edgeStyle=orthogonalEdgeStyle;rounded=0;orthogonalLoop=1;jettySize=auto;html=1;" parent="1" source="MeGF1b_iHPwc-YLpwdY9-59" target="MeGF1b_iHPwc-YLpwdY9-61" edge="1">
          <mxGeometry relative="1" as="geometry" />
        </mxCell>
        <mxCell id="MeGF1b_iHPwc-YLpwdY9-81" style="edgeStyle=orthogonalEdgeStyle;rounded=0;orthogonalLoop=1;jettySize=auto;html=1;exitX=0.5;exitY=0;exitDx=0;exitDy=0;" parent="1" source="MeGF1b_iHPwc-YLpwdY9-59" edge="1">
          <mxGeometry relative="1" as="geometry">
            <mxPoint x="384.42857142857156" y="60" as="targetPoint" />
          </mxGeometry>
        </mxCell>
        <mxCell id="MeGF1b_iHPwc-YLpwdY9-93" value="" style="edgeStyle=orthogonalEdgeStyle;rounded=0;orthogonalLoop=1;jettySize=auto;html=1;" parent="1" source="MeGF1b_iHPwc-YLpwdY9-59" target="MeGF1b_iHPwc-YLpwdY9-92" edge="1">
          <mxGeometry relative="1" as="geometry" />
        </mxCell>
        <mxCell id="MeGF1b_iHPwc-YLpwdY9-59" value="Interface" style="whiteSpace=wrap;html=1;rounded=0;fillColor=#dae8fc;strokeColor=#6c8ebf;" parent="1" vertex="1">
          <mxGeometry x="325" y="384" width="120" height="60" as="geometry" />
        </mxCell>
        <mxCell id="MeGF1b_iHPwc-YLpwdY9-75" style="edgeStyle=orthogonalEdgeStyle;rounded=0;orthogonalLoop=1;jettySize=auto;html=1;exitX=0;exitY=0.5;exitDx=0;exitDy=0;entryX=1;entryY=0.5;entryDx=0;entryDy=0;" parent="1" source="MeGF1b_iHPwc-YLpwdY9-61" target="MeGF1b_iHPwc-YLpwdY9-68" edge="1">
          <mxGeometry relative="1" as="geometry" />
        </mxCell>
        <mxCell id="MeGF1b_iHPwc-YLpwdY9-77" style="edgeStyle=orthogonalEdgeStyle;rounded=0;orthogonalLoop=1;jettySize=auto;html=1;exitX=0;exitY=0.5;exitDx=0;exitDy=0;entryX=1;entryY=0.75;entryDx=0;entryDy=0;" parent="1" source="MeGF1b_iHPwc-YLpwdY9-61" target="MeGF1b_iHPwc-YLpwdY9-67" edge="1">
          <mxGeometry relative="1" as="geometry" />
        </mxCell>
        <mxCell id="MeGF1b_iHPwc-YLpwdY9-78" style="edgeStyle=orthogonalEdgeStyle;rounded=0;orthogonalLoop=1;jettySize=auto;html=1;exitX=0;exitY=0.5;exitDx=0;exitDy=0;entryX=1;entryY=0.5;entryDx=0;entryDy=0;" parent="1" source="MeGF1b_iHPwc-YLpwdY9-61" target="MeGF1b_iHPwc-YLpwdY9-66" edge="1">
          <mxGeometry relative="1" as="geometry" />
        </mxCell>
        <mxCell id="MeGF1b_iHPwc-YLpwdY9-79" style="edgeStyle=orthogonalEdgeStyle;rounded=0;orthogonalLoop=1;jettySize=auto;html=1;exitX=0;exitY=0.5;exitDx=0;exitDy=0;entryX=1;entryY=0.5;entryDx=0;entryDy=0;" parent="1" source="MeGF1b_iHPwc-YLpwdY9-61" target="MeGF1b_iHPwc-YLpwdY9-65" edge="1">
          <mxGeometry relative="1" as="geometry" />
        </mxCell>
        <mxCell id="MeGF1b_iHPwc-YLpwdY9-80" style="edgeStyle=orthogonalEdgeStyle;rounded=0;orthogonalLoop=1;jettySize=auto;html=1;exitX=0;exitY=0.5;exitDx=0;exitDy=0;" parent="1" source="MeGF1b_iHPwc-YLpwdY9-61" target="MeGF1b_iHPwc-YLpwdY9-64" edge="1">
          <mxGeometry relative="1" as="geometry" />
        </mxCell>
        <mxCell id="MeGF1b_iHPwc-YLpwdY9-61" value="Para quem é a scooter" style="whiteSpace=wrap;html=1;fillColor=#dae8fc;strokeColor=#6c8ebf;rounded=0;" parent="1" vertex="1">
          <mxGeometry x="205" y="135" width="120" height="60" as="geometry" />
        </mxCell>
        <mxCell id="MeGF1b_iHPwc-YLpwdY9-64" value="Nome" style="rounded=1;whiteSpace=wrap;html=1;fillColor=#dae8fc;strokeColor=#6c8ebf;" parent="1" vertex="1">
          <mxGeometry x="40" y="80" width="80" height="30" as="geometry" />
        </mxCell>
        <mxCell id="MeGF1b_iHPwc-YLpwdY9-65" value="Sobrenome" style="rounded=1;whiteSpace=wrap;html=1;fillColor=#dae8fc;strokeColor=#6c8ebf;" parent="1" vertex="1">
          <mxGeometry x="40" y="120" width="80" height="30" as="geometry" />
        </mxCell>
        <mxCell id="MeGF1b_iHPwc-YLpwdY9-66" value="Endereço: para onde levar a scooter" style="rounded=1;whiteSpace=wrap;html=1;fillColor=#dae8fc;strokeColor=#6c8ebf;" parent="1" vertex="1">
          <mxGeometry x="40" y="160" width="80" height="60" as="geometry" />
        </mxCell>
        <mxCell id="MeGF1b_iHPwc-YLpwdY9-67" value="Estação de metrô" style="rounded=1;whiteSpace=wrap;html=1;fillColor=#dae8fc;strokeColor=#6c8ebf;" parent="1" vertex="1">
          <mxGeometry x="40" y="230" width="80" height="30" as="geometry" />
        </mxCell>
        <mxCell id="MeGF1b_iHPwc-YLpwdY9-68" value="Telefone: o entregador ligará nesse número" style="rounded=1;whiteSpace=wrap;html=1;fillColor=#dae8fc;strokeColor=#6c8ebf;" parent="1" vertex="1">
          <mxGeometry x="40" y="270" width="80" height="60" as="geometry" />
        </mxCell>
        <mxCell id="MeGF1b_iHPwc-YLpwdY9-87" style="edgeStyle=orthogonalEdgeStyle;rounded=0;orthogonalLoop=1;jettySize=auto;html=1;exitX=1;exitY=0.5;exitDx=0;exitDy=0;entryX=0;entryY=0.75;entryDx=0;entryDy=0;" parent="1" source="MeGF1b_iHPwc-YLpwdY9-82" target="MeGF1b_iHPwc-YLpwdY9-86" edge="1">
          <mxGeometry relative="1" as="geometry" />
        </mxCell>
        <mxCell id="MNYP6p93eB5pjWZIfmqP-4" style="edgeStyle=orthogonalEdgeStyle;rounded=0;orthogonalLoop=1;jettySize=auto;html=1;exitX=0;exitY=0.5;exitDx=0;exitDy=0;entryX=1;entryY=0.75;entryDx=0;entryDy=0;" parent="1" source="MeGF1b_iHPwc-YLpwdY9-82" target="MeGF1b_iHPwc-YLpwdY9-84" edge="1">
          <mxGeometry relative="1" as="geometry" />
        </mxCell>
        <mxCell id="MeGF1b_iHPwc-YLpwdY9-82" value="Cabeçario" style="rounded=0;whiteSpace=wrap;html=1;fillColor=#dae8fc;strokeColor=#6c8ebf;" parent="1" vertex="1">
          <mxGeometry x="350" y="45" width="85" height="50" as="geometry" />
        </mxCell>
        <mxCell id="MeGF1b_iHPwc-YLpwdY9-84" value="&lt;b&gt;Urban &lt;/b&gt;Scooter&amp;nbsp;&lt;div style=&quot;font-size: 6px;&quot;&gt;PLATAFORMA INTERATIVA&lt;/div&gt;&lt;div style=&quot;font-size: 6px;&quot;&gt;&lt;br&gt;&lt;/div&gt;" style="rounded=1;whiteSpace=wrap;html=1;fillColor=#dae8fc;strokeColor=#6c8ebf;" parent="1" vertex="1">
          <mxGeometry x="232.5" y="50" width="70" height="30" as="geometry" />
        </mxCell>
        <mxCell id="MeGF1b_iHPwc-YLpwdY9-89" style="edgeStyle=orthogonalEdgeStyle;rounded=0;orthogonalLoop=1;jettySize=auto;html=1;exitX=1;exitY=0.5;exitDx=0;exitDy=0;entryX=0;entryY=0.5;entryDx=0;entryDy=0;" parent="1" source="MeGF1b_iHPwc-YLpwdY9-86" target="MeGF1b_iHPwc-YLpwdY9-88" edge="1">
          <mxGeometry relative="1" as="geometry" />
        </mxCell>
        <mxCell id="MeGF1b_iHPwc-YLpwdY9-91" style="edgeStyle=orthogonalEdgeStyle;rounded=0;orthogonalLoop=1;jettySize=auto;html=1;exitX=1;exitY=0.5;exitDx=0;exitDy=0;entryX=0;entryY=0.5;entryDx=0;entryDy=0;" parent="1" source="MeGF1b_iHPwc-YLpwdY9-86" target="MeGF1b_iHPwc-YLpwdY9-90" edge="1">
          <mxGeometry relative="1" as="geometry" />
        </mxCell>
        <mxCell id="MeGF1b_iHPwc-YLpwdY9-86" value="Botões" style="rounded=1;whiteSpace=wrap;html=1;fillColor=#dae8fc;strokeColor=#6c8ebf;" parent="1" vertex="1">
          <mxGeometry x="460" y="55" width="45" height="20" as="geometry" />
        </mxCell>
        <mxCell id="MNYP6p93eB5pjWZIfmqP-5" style="edgeStyle=orthogonalEdgeStyle;rounded=0;orthogonalLoop=1;jettySize=auto;html=1;exitX=0.25;exitY=0;exitDx=0;exitDy=0;entryX=0;entryY=0;entryDx=0;entryDy=0;" parent="1" source="MeGF1b_iHPwc-YLpwdY9-88" target="MeGF1b_iHPwc-YLpwdY9-61" edge="1">
          <mxGeometry relative="1" as="geometry" />
        </mxCell>
        <mxCell id="MeGF1b_iHPwc-YLpwdY9-88" value="Fazer pedido" style="rounded=1;whiteSpace=wrap;html=1;fillColor=#dae8fc;strokeColor=#6c8ebf;" parent="1" vertex="1">
          <mxGeometry x="550" y="50" width="70" height="30" as="geometry" />
        </mxCell>
        <mxCell id="MeGF1b_iHPwc-YLpwdY9-90" value="Status do pedido" style="rounded=1;whiteSpace=wrap;html=1;fillColor=#dae8fc;strokeColor=#6c8ebf;" parent="1" vertex="1">
          <mxGeometry x="515" y="110" width="70" height="30" as="geometry" />
        </mxCell>
        <mxCell id="MeGF1b_iHPwc-YLpwdY9-95" value="" style="edgeStyle=orthogonalEdgeStyle;rounded=0;orthogonalLoop=1;jettySize=auto;html=1;" parent="1" source="MeGF1b_iHPwc-YLpwdY9-92" target="MeGF1b_iHPwc-YLpwdY9-94" edge="1">
          <mxGeometry relative="1" as="geometry" />
        </mxCell>
        <mxCell id="MeGF1b_iHPwc-YLpwdY9-92" value="Botão Avançar" style="whiteSpace=wrap;html=1;fillColor=#dae8fc;strokeColor=#6c8ebf;rounded=0;" parent="1" vertex="1">
          <mxGeometry x="348.75" y="490" width="72.5" height="40" as="geometry" />
        </mxCell>
        <mxCell id="MeGF1b_iHPwc-YLpwdY9-97" value="" style="edgeStyle=orthogonalEdgeStyle;rounded=0;orthogonalLoop=1;jettySize=auto;html=1;" parent="1" source="MeGF1b_iHPwc-YLpwdY9-94" edge="1">
          <mxGeometry relative="1" as="geometry">
            <mxPoint x="300.0000000000002" y="580" as="targetPoint" />
          </mxGeometry>
        </mxCell>
        <mxCell id="MeGF1b_iHPwc-YLpwdY9-111" style="edgeStyle=orthogonalEdgeStyle;rounded=0;orthogonalLoop=1;jettySize=auto;html=1;exitX=0.5;exitY=1;exitDx=0;exitDy=0;entryX=1;entryY=0.5;entryDx=0;entryDy=0;" parent="1" source="MeGF1b_iHPwc-YLpwdY9-94" target="MeGF1b_iHPwc-YLpwdY9-110" edge="1">
          <mxGeometry relative="1" as="geometry" />
        </mxCell>
        <mxCell id="rg2bOsuD-WNc4exFvBme-7" style="edgeStyle=orthogonalEdgeStyle;rounded=0;orthogonalLoop=1;jettySize=auto;html=1;exitX=0.5;exitY=1;exitDx=0;exitDy=0;entryX=1;entryY=0.5;entryDx=0;entryDy=0;" parent="1" source="MeGF1b_iHPwc-YLpwdY9-94" target="MeGF1b_iHPwc-YLpwdY9-112" edge="1">
          <mxGeometry relative="1" as="geometry" />
        </mxCell>
        <mxCell id="rg2bOsuD-WNc4exFvBme-9" style="edgeStyle=orthogonalEdgeStyle;rounded=0;orthogonalLoop=1;jettySize=auto;html=1;exitX=0.5;exitY=1;exitDx=0;exitDy=0;entryX=0.5;entryY=0;entryDx=0;entryDy=0;" parent="1" source="MeGF1b_iHPwc-YLpwdY9-94" target="MeGF1b_iHPwc-YLpwdY9-117" edge="1">
          <mxGeometry relative="1" as="geometry" />
        </mxCell>
        <mxCell id="MeGF1b_iHPwc-YLpwdY9-94" value="Locação" style="whiteSpace=wrap;html=1;fillColor=#dae8fc;strokeColor=#6c8ebf;rounded=0;" parent="1" vertex="1">
          <mxGeometry x="352.5" y="560" width="65" height="40" as="geometry" />
        </mxCell>
        <mxCell id="MeGF1b_iHPwc-YLpwdY9-106" style="edgeStyle=orthogonalEdgeStyle;rounded=0;orthogonalLoop=1;jettySize=auto;html=1;exitX=0;exitY=0.5;exitDx=0;exitDy=0;entryX=1;entryY=0.5;entryDx=0;entryDy=0;" parent="1" source="MeGF1b_iHPwc-YLpwdY9-99" target="MeGF1b_iHPwc-YLpwdY9-102" edge="1">
          <mxGeometry relative="1" as="geometry" />
        </mxCell>
        <mxCell id="MeGF1b_iHPwc-YLpwdY9-107" style="edgeStyle=orthogonalEdgeStyle;rounded=0;orthogonalLoop=1;jettySize=auto;html=1;exitX=0;exitY=0.5;exitDx=0;exitDy=0;entryX=1;entryY=0.5;entryDx=0;entryDy=0;" parent="1" source="MeGF1b_iHPwc-YLpwdY9-99" target="MeGF1b_iHPwc-YLpwdY9-103" edge="1">
          <mxGeometry relative="1" as="geometry" />
        </mxCell>
        <mxCell id="MeGF1b_iHPwc-YLpwdY9-108" style="edgeStyle=orthogonalEdgeStyle;rounded=0;orthogonalLoop=1;jettySize=auto;html=1;exitX=0;exitY=0.5;exitDx=0;exitDy=0;entryX=1;entryY=0.5;entryDx=0;entryDy=0;" parent="1" source="MeGF1b_iHPwc-YLpwdY9-99" target="MeGF1b_iHPwc-YLpwdY9-104" edge="1">
          <mxGeometry relative="1" as="geometry" />
        </mxCell>
        <mxCell id="MeGF1b_iHPwc-YLpwdY9-109" style="edgeStyle=orthogonalEdgeStyle;rounded=0;orthogonalLoop=1;jettySize=auto;html=1;exitX=0;exitY=0.5;exitDx=0;exitDy=0;entryX=1;entryY=0.5;entryDx=0;entryDy=0;" parent="1" source="MeGF1b_iHPwc-YLpwdY9-99" target="MeGF1b_iHPwc-YLpwdY9-105" edge="1">
          <mxGeometry relative="1" as="geometry" />
        </mxCell>
        <mxCell id="MeGF1b_iHPwc-YLpwdY9-99" value="Campos" style="rounded=1;whiteSpace=wrap;html=1;fillColor=#dae8fc;strokeColor=#6c8ebf;" parent="1" vertex="1">
          <mxGeometry x="250" y="560" width="50" height="40" as="geometry" />
        </mxCell>
        <mxCell id="MeGF1b_iHPwc-YLpwdY9-102" value="Quando entregar a scooter" style="rounded=1;whiteSpace=wrap;html=1;fillColor=#dae8fc;strokeColor=#6c8ebf;" parent="1" vertex="1">
          <mxGeometry x="50" y="400" width="100" height="44" as="geometry" />
        </mxCell>
        <mxCell id="MeGF1b_iHPwc-YLpwdY9-103" value="Período de locação" style="rounded=1;whiteSpace=wrap;html=1;fillColor=#dae8fc;strokeColor=#6c8ebf;" parent="1" vertex="1">
          <mxGeometry x="50" y="460" width="100" height="44" as="geometry" />
        </mxCell>
        <mxCell id="MeGF1b_iHPwc-YLpwdY9-104" value="A cor da scooter&lt;div style=&quot;font-size: 8px;&quot;&gt;PRETO&lt;/div&gt;&lt;div style=&quot;font-size: 8px;&quot;&gt;CINZA&lt;/div&gt;" style="rounded=1;whiteSpace=wrap;html=1;fillColor=#dae8fc;strokeColor=#6c8ebf;" parent="1" vertex="1">
          <mxGeometry x="50" y="520" width="100" height="44" as="geometry" />
        </mxCell>
        <mxCell id="MeGF1b_iHPwc-YLpwdY9-105" value="Comentário para o entregador" style="rounded=1;whiteSpace=wrap;html=1;fillColor=#dae8fc;strokeColor=#6c8ebf;" parent="1" vertex="1">
          <mxGeometry x="50" y="580" width="100" height="44" as="geometry" />
        </mxCell>
        <mxCell id="MeGF1b_iHPwc-YLpwdY9-110" value="Botão voltar" style="rounded=1;whiteSpace=wrap;html=1;fillColor=#dae8fc;strokeColor=#6c8ebf;" parent="1" vertex="1">
          <mxGeometry x="245" y="620" width="80" height="40" as="geometry" />
        </mxCell>
        <mxCell id="rg2bOsuD-WNc4exFvBme-8" style="edgeStyle=orthogonalEdgeStyle;rounded=0;orthogonalLoop=1;jettySize=auto;html=1;exitX=0;exitY=0.5;exitDx=0;exitDy=0;entryX=1;entryY=0.5;entryDx=0;entryDy=0;" parent="1" source="MeGF1b_iHPwc-YLpwdY9-112" target="MeGF1b_iHPwc-YLpwdY9-115" edge="1">
          <mxGeometry relative="1" as="geometry" />
        </mxCell>
        <mxCell id="MeGF1b_iHPwc-YLpwdY9-112" value="Fazer pedido&lt;div&gt;&lt;br&gt;&lt;/div&gt;" style="rounded=1;whiteSpace=wrap;html=1;fillColor=#dae8fc;strokeColor=#6c8ebf;" parent="1" vertex="1">
          <mxGeometry x="245" y="690" width="80" height="40" as="geometry" />
        </mxCell>
        <mxCell id="MeGF1b_iHPwc-YLpwdY9-115" value="Pop-up: &quot;Número do pedido NNNNN. Anote esse número: ele vai servir para acompanhar o status no botão &quot;Verificar Status&quot;." style="rounded=1;whiteSpace=wrap;html=1;fillColor=#dae8fc;strokeColor=#6c8ebf;" parent="1" vertex="1">
          <mxGeometry x="10" y="685" width="200" height="50" as="geometry" />
        </mxCell>
        <mxCell id="rg2bOsuD-WNc4exFvBme-31" style="edgeStyle=orthogonalEdgeStyle;rounded=0;orthogonalLoop=1;jettySize=auto;html=1;exitX=0;exitY=0.5;exitDx=0;exitDy=0;entryX=1;entryY=0.5;entryDx=0;entryDy=0;" parent="1" source="MeGF1b_iHPwc-YLpwdY9-117" target="rg2bOsuD-WNc4exFvBme-30" edge="1">
          <mxGeometry relative="1" as="geometry" />
        </mxCell>
        <mxCell id="MeGF1b_iHPwc-YLpwdY9-117" value="Verificar Status" style="rounded=1;whiteSpace=wrap;html=1;fillColor=#dae8fc;strokeColor=#6c8ebf;" parent="1" vertex="1">
          <mxGeometry x="345" y="750" width="80" height="40" as="geometry" />
        </mxCell>
        <mxCell id="crsZTfP_8VAFgFiVn4Fk-1" style="edgeStyle=orthogonalEdgeStyle;rounded=0;orthogonalLoop=1;jettySize=auto;html=1;exitX=1;exitY=0.5;exitDx=0;exitDy=0;entryX=0;entryY=0.5;entryDx=0;entryDy=0;" parent="1" source="MeGF1b_iHPwc-YLpwdY9-123" target="MeGF1b_iHPwc-YLpwdY9-131" edge="1">
          <mxGeometry relative="1" as="geometry" />
        </mxCell>
        <mxCell id="crsZTfP_8VAFgFiVn4Fk-10" style="edgeStyle=orthogonalEdgeStyle;rounded=0;orthogonalLoop=1;jettySize=auto;html=1;exitX=1;exitY=0.5;exitDx=0;exitDy=0;entryX=0;entryY=0.5;entryDx=0;entryDy=0;" parent="1" source="MeGF1b_iHPwc-YLpwdY9-123" target="crsZTfP_8VAFgFiVn4Fk-9" edge="1">
          <mxGeometry relative="1" as="geometry" />
        </mxCell>
        <mxCell id="crsZTfP_8VAFgFiVn4Fk-18" style="edgeStyle=orthogonalEdgeStyle;rounded=0;orthogonalLoop=1;jettySize=auto;html=1;exitX=1;exitY=0.5;exitDx=0;exitDy=0;entryX=0;entryY=0.5;entryDx=0;entryDy=0;" parent="1" source="MeGF1b_iHPwc-YLpwdY9-123" target="crsZTfP_8VAFgFiVn4Fk-17" edge="1">
          <mxGeometry relative="1" as="geometry" />
        </mxCell>
        <mxCell id="crsZTfP_8VAFgFiVn4Fk-30" style="edgeStyle=orthogonalEdgeStyle;rounded=0;orthogonalLoop=1;jettySize=auto;html=1;exitX=1;exitY=0.5;exitDx=0;exitDy=0;entryX=0;entryY=0.5;entryDx=0;entryDy=0;" parent="1" source="MeGF1b_iHPwc-YLpwdY9-123" target="crsZTfP_8VAFgFiVn4Fk-29" edge="1">
          <mxGeometry relative="1" as="geometry" />
        </mxCell>
        <mxCell id="crsZTfP_8VAFgFiVn4Fk-41" style="edgeStyle=orthogonalEdgeStyle;rounded=0;orthogonalLoop=1;jettySize=auto;html=1;exitX=1;exitY=0.5;exitDx=0;exitDy=0;entryX=0;entryY=0.75;entryDx=0;entryDy=0;" parent="1" source="MeGF1b_iHPwc-YLpwdY9-123" target="crsZTfP_8VAFgFiVn4Fk-34" edge="1">
          <mxGeometry relative="1" as="geometry" />
        </mxCell>
        <mxCell id="MeGF1b_iHPwc-YLpwdY9-123" value="Para quem é a scooter" style="rounded=1;whiteSpace=wrap;html=1;fillColor=#f8cecc;strokeColor=#b85450;" parent="1" vertex="1">
          <mxGeometry x="775" y="45" width="90" height="50" as="geometry" />
        </mxCell>
        <mxCell id="MeGF1b_iHPwc-YLpwdY9-128" style="edgeStyle=orthogonalEdgeStyle;rounded=0;orthogonalLoop=1;jettySize=auto;html=1;exitX=0.5;exitY=0;exitDx=0;exitDy=0;entryX=0.25;entryY=1;entryDx=0;entryDy=0;" parent="1" source="MeGF1b_iHPwc-YLpwdY9-124" target="MeGF1b_iHPwc-YLpwdY9-127" edge="1">
          <mxGeometry relative="1" as="geometry" />
        </mxCell>
        <mxCell id="MeGF1b_iHPwc-YLpwdY9-129" style="edgeStyle=orthogonalEdgeStyle;rounded=0;orthogonalLoop=1;jettySize=auto;html=1;exitX=0.25;exitY=0;exitDx=0;exitDy=0;entryX=1;entryY=1;entryDx=0;entryDy=0;" parent="1" source="MeGF1b_iHPwc-YLpwdY9-124" edge="1">
          <mxGeometry relative="1" as="geometry">
            <mxPoint x="674.9999999999995" y="195" as="targetPoint" />
          </mxGeometry>
        </mxCell>
        <mxCell id="MeGF1b_iHPwc-YLpwdY9-124" value="Cabeçario" style="rounded=1;whiteSpace=wrap;html=1;fillColor=#f8cecc;strokeColor=#b85450;" parent="1" vertex="1">
          <mxGeometry x="685" y="215" width="65" height="30" as="geometry" />
        </mxCell>
        <mxCell id="MeGF1b_iHPwc-YLpwdY9-126" value="Status de pedido" style="rounded=1;whiteSpace=wrap;html=1;fillColor=#f8cecc;strokeColor=#b85450;" parent="1" vertex="1">
          <mxGeometry x="630" y="155" width="70" height="40" as="geometry" />
        </mxCell>
        <mxCell id="MeGF1b_iHPwc-YLpwdY9-130" style="edgeStyle=orthogonalEdgeStyle;rounded=0;orthogonalLoop=1;jettySize=auto;html=1;exitX=0.5;exitY=0;exitDx=0;exitDy=0;entryX=0;entryY=0.5;entryDx=0;entryDy=0;" parent="1" source="MeGF1b_iHPwc-YLpwdY9-127" target="MeGF1b_iHPwc-YLpwdY9-123" edge="1">
          <mxGeometry relative="1" as="geometry" />
        </mxCell>
        <mxCell id="MeGF1b_iHPwc-YLpwdY9-127" value="Fazer Pedido" style="rounded=1;whiteSpace=wrap;html=1;fillColor=#f8cecc;strokeColor=#b85450;" parent="1" vertex="1">
          <mxGeometry x="715" y="155" width="70" height="40" as="geometry" />
        </mxCell>
        <mxCell id="crsZTfP_8VAFgFiVn4Fk-6" style="edgeStyle=orthogonalEdgeStyle;rounded=0;orthogonalLoop=1;jettySize=auto;html=1;exitX=1;exitY=0.5;exitDx=0;exitDy=0;entryX=0;entryY=0.75;entryDx=0;entryDy=0;" parent="1" source="MeGF1b_iHPwc-YLpwdY9-131" target="crsZTfP_8VAFgFiVn4Fk-2" edge="1">
          <mxGeometry relative="1" as="geometry" />
        </mxCell>
        <mxCell id="crsZTfP_8VAFgFiVn4Fk-7" style="edgeStyle=orthogonalEdgeStyle;rounded=0;orthogonalLoop=1;jettySize=auto;html=1;exitX=1;exitY=0.5;exitDx=0;exitDy=0;entryX=0;entryY=0.75;entryDx=0;entryDy=0;" parent="1" source="MeGF1b_iHPwc-YLpwdY9-131" target="crsZTfP_8VAFgFiVn4Fk-4" edge="1">
          <mxGeometry relative="1" as="geometry" />
        </mxCell>
        <mxCell id="crsZTfP_8VAFgFiVn4Fk-8" style="edgeStyle=orthogonalEdgeStyle;rounded=0;orthogonalLoop=1;jettySize=auto;html=1;exitX=1;exitY=0.5;exitDx=0;exitDy=0;entryX=0;entryY=0.5;entryDx=0;entryDy=0;" parent="1" source="MeGF1b_iHPwc-YLpwdY9-131" target="crsZTfP_8VAFgFiVn4Fk-5" edge="1">
          <mxGeometry relative="1" as="geometry" />
        </mxCell>
        <mxCell id="MeGF1b_iHPwc-YLpwdY9-131" value="Nome&lt;div&gt;&lt;br&gt;&lt;/div&gt;" style="rounded=1;whiteSpace=wrap;html=1;fillColor=#d80073;strokeColor=#A50040;fontColor=#ffffff;" parent="1" vertex="1">
          <mxGeometry x="905" y="50" width="80" height="40" as="geometry" />
        </mxCell>
        <mxCell id="crsZTfP_8VAFgFiVn4Fk-2" value="Apenas letras latinas, espaços e traços" style="rounded=1;whiteSpace=wrap;html=1;fillColor=#f8cecc;strokeColor=#b85450;" parent="1" vertex="1">
          <mxGeometry x="1015" y="10" width="255" height="30" as="geometry" />
        </mxCell>
        <mxCell id="crsZTfP_8VAFgFiVn4Fk-4" value="Caracteres: &amp;gt;2&lt;div&gt;&amp;lt;15&lt;/div&gt;" style="rounded=1;whiteSpace=wrap;html=1;fillColor=#f8cecc;strokeColor=#b85450;" parent="1" vertex="1">
          <mxGeometry x="1015" y="50" width="255" height="30" as="geometry" />
        </mxCell>
        <mxCell id="crsZTfP_8VAFgFiVn4Fk-5" value="&lt;font style=&quot;font-size: 12px;&quot;&gt;Caso inserido incorretamente a mensagem &quot;Digite o nome correto&quot; aparecera como erro.&lt;/font&gt;" style="rounded=1;whiteSpace=wrap;html=1;fillColor=#f8cecc;strokeColor=#b85450;" parent="1" vertex="1">
          <mxGeometry x="1015" y="90" width="255" height="40" as="geometry" />
        </mxCell>
        <mxCell id="crsZTfP_8VAFgFiVn4Fk-14" style="edgeStyle=orthogonalEdgeStyle;rounded=0;orthogonalLoop=1;jettySize=auto;html=1;exitX=1;exitY=0.5;exitDx=0;exitDy=0;entryX=0;entryY=0.25;entryDx=0;entryDy=0;" parent="1" source="crsZTfP_8VAFgFiVn4Fk-9" target="crsZTfP_8VAFgFiVn4Fk-11" edge="1">
          <mxGeometry relative="1" as="geometry" />
        </mxCell>
        <mxCell id="crsZTfP_8VAFgFiVn4Fk-15" style="edgeStyle=orthogonalEdgeStyle;rounded=0;orthogonalLoop=1;jettySize=auto;html=1;exitX=1;exitY=0.5;exitDx=0;exitDy=0;entryX=0;entryY=0.75;entryDx=0;entryDy=0;" parent="1" source="crsZTfP_8VAFgFiVn4Fk-9" target="crsZTfP_8VAFgFiVn4Fk-13" edge="1">
          <mxGeometry relative="1" as="geometry">
            <Array as="points">
              <mxPoint x="1005" y="185" />
              <mxPoint x="1005" y="255" />
            </Array>
          </mxGeometry>
        </mxCell>
        <mxCell id="crsZTfP_8VAFgFiVn4Fk-16" style="edgeStyle=orthogonalEdgeStyle;rounded=0;orthogonalLoop=1;jettySize=auto;html=1;exitX=1;exitY=0.5;exitDx=0;exitDy=0;entryX=0;entryY=0.5;entryDx=0;entryDy=0;" parent="1" source="crsZTfP_8VAFgFiVn4Fk-9" target="crsZTfP_8VAFgFiVn4Fk-12" edge="1">
          <mxGeometry relative="1" as="geometry" />
        </mxCell>
        <mxCell id="crsZTfP_8VAFgFiVn4Fk-9" value="Sobrenome" style="rounded=1;whiteSpace=wrap;html=1;fillColor=#d80073;strokeColor=#A50040;fontColor=#ffffff;" parent="1" vertex="1">
          <mxGeometry x="905" y="165" width="80" height="40" as="geometry" />
        </mxCell>
        <mxCell id="crsZTfP_8VAFgFiVn4Fk-11" value="Apenas letras latinas, espaços e traços" style="rounded=1;whiteSpace=wrap;html=1;fillColor=#f8cecc;strokeColor=#b85450;" parent="1" vertex="1">
          <mxGeometry x="1015" y="145" width="255" height="30" as="geometry" />
        </mxCell>
        <mxCell id="crsZTfP_8VAFgFiVn4Fk-12" value="Caracteres: &amp;gt;2&lt;div&gt;&amp;lt;15&lt;/div&gt;" style="rounded=1;whiteSpace=wrap;html=1;fillColor=#f8cecc;strokeColor=#b85450;" parent="1" vertex="1">
          <mxGeometry x="1015" y="185" width="255" height="30" as="geometry" />
        </mxCell>
        <mxCell id="crsZTfP_8VAFgFiVn4Fk-13" value="&lt;font style=&quot;font-size: 12px;&quot;&gt;Caso inserido incorretamente a mensagem &quot;Insira um sobrenome valido&quot; aparecera como erro.&lt;/font&gt;" style="rounded=1;whiteSpace=wrap;html=1;fillColor=#f8cecc;strokeColor=#b85450;" parent="1" vertex="1">
          <mxGeometry x="1015" y="225" width="255" height="35" as="geometry" />
        </mxCell>
        <mxCell id="crsZTfP_8VAFgFiVn4Fk-25" style="edgeStyle=orthogonalEdgeStyle;rounded=0;orthogonalLoop=1;jettySize=auto;html=1;exitX=1;exitY=0.5;exitDx=0;exitDy=0;entryX=0;entryY=0.25;entryDx=0;entryDy=0;" parent="1" source="crsZTfP_8VAFgFiVn4Fk-17" target="crsZTfP_8VAFgFiVn4Fk-19" edge="1">
          <mxGeometry relative="1" as="geometry" />
        </mxCell>
        <mxCell id="crsZTfP_8VAFgFiVn4Fk-26" style="edgeStyle=orthogonalEdgeStyle;rounded=0;orthogonalLoop=1;jettySize=auto;html=1;exitX=1;exitY=0.5;exitDx=0;exitDy=0;entryX=0;entryY=0.75;entryDx=0;entryDy=0;" parent="1" source="crsZTfP_8VAFgFiVn4Fk-17" target="crsZTfP_8VAFgFiVn4Fk-22" edge="1">
          <mxGeometry relative="1" as="geometry" />
        </mxCell>
        <mxCell id="crsZTfP_8VAFgFiVn4Fk-27" style="edgeStyle=orthogonalEdgeStyle;rounded=0;orthogonalLoop=1;jettySize=auto;html=1;exitX=1;exitY=0.5;exitDx=0;exitDy=0;entryX=0;entryY=0.5;entryDx=0;entryDy=0;" parent="1" source="crsZTfP_8VAFgFiVn4Fk-17" target="crsZTfP_8VAFgFiVn4Fk-23" edge="1">
          <mxGeometry relative="1" as="geometry">
            <Array as="points">
              <mxPoint x="1005" y="315" />
              <mxPoint x="1005" y="380" />
            </Array>
          </mxGeometry>
        </mxCell>
        <mxCell id="crsZTfP_8VAFgFiVn4Fk-28" style="edgeStyle=orthogonalEdgeStyle;rounded=0;orthogonalLoop=1;jettySize=auto;html=1;exitX=1;exitY=0.5;exitDx=0;exitDy=0;entryX=0;entryY=0.5;entryDx=0;entryDy=0;" parent="1" source="crsZTfP_8VAFgFiVn4Fk-17" target="crsZTfP_8VAFgFiVn4Fk-24" edge="1">
          <mxGeometry relative="1" as="geometry">
            <Array as="points">
              <mxPoint x="1005" y="315" />
              <mxPoint x="1005" y="429" />
            </Array>
          </mxGeometry>
        </mxCell>
        <mxCell id="crsZTfP_8VAFgFiVn4Fk-17" value="Endereço:" style="rounded=1;whiteSpace=wrap;html=1;fillColor=#d80073;strokeColor=#A50040;fontColor=#ffffff;" parent="1" vertex="1">
          <mxGeometry x="905" y="295" width="80" height="40" as="geometry" />
        </mxCell>
        <mxCell id="crsZTfP_8VAFgFiVn4Fk-19" value="&lt;font style=&quot;font-size: 12px;&quot;&gt;Apenas letras latinas, espaços, traços, números, barras, pontos e vírgulas.&lt;/font&gt;" style="rounded=1;whiteSpace=wrap;html=1;fillColor=#f8cecc;strokeColor=#b85450;" parent="1" vertex="1">
          <mxGeometry x="1015" y="275" width="255" height="35" as="geometry" />
        </mxCell>
        <mxCell id="crsZTfP_8VAFgFiVn4Fk-22" value="Caracteres: &amp;gt;5&lt;div&gt;&amp;lt;50&lt;/div&gt;" style="rounded=1;whiteSpace=wrap;html=1;fillColor=#f8cecc;strokeColor=#b85450;" parent="1" vertex="1">
          <mxGeometry x="1015" y="325" width="255" height="30" as="geometry" />
        </mxCell>
        <mxCell id="crsZTfP_8VAFgFiVn4Fk-23" value="&lt;font style=&quot;font-size: 12px;&quot;&gt;Espaços antes e depois são excluídos após a remoção do foco&lt;/font&gt;" style="rounded=1;whiteSpace=wrap;html=1;fillColor=#f8cecc;strokeColor=#b85450;" parent="1" vertex="1">
          <mxGeometry x="1015" y="365" width="255" height="30" as="geometry" />
        </mxCell>
        <mxCell id="crsZTfP_8VAFgFiVn4Fk-24" value="&lt;font style=&quot;font-size: 12px;&quot;&gt;Caso inserido incorretamente a mensagem &quot;Insira um endereço valido&quot; aparecera como erro.&lt;/font&gt;" style="rounded=1;whiteSpace=wrap;html=1;fillColor=#f8cecc;strokeColor=#b85450;" parent="1" vertex="1">
          <mxGeometry x="1015" y="408.5" width="255" height="40" as="geometry" />
        </mxCell>
        <mxCell id="crsZTfP_8VAFgFiVn4Fk-33" style="edgeStyle=orthogonalEdgeStyle;rounded=0;orthogonalLoop=1;jettySize=auto;html=1;exitX=1;exitY=0.5;exitDx=0;exitDy=0;" parent="1" source="crsZTfP_8VAFgFiVn4Fk-29" target="crsZTfP_8VAFgFiVn4Fk-32" edge="1">
          <mxGeometry relative="1" as="geometry" />
        </mxCell>
        <mxCell id="crsZTfP_8VAFgFiVn4Fk-29" value="Estação de metrô" style="rounded=1;whiteSpace=wrap;html=1;fillColor=#d80073;strokeColor=#A50040;fontColor=#ffffff;" parent="1" vertex="1">
          <mxGeometry x="905" y="485" width="80" height="40" as="geometry" />
        </mxCell>
        <mxCell id="crsZTfP_8VAFgFiVn4Fk-32" value="Lista de sugestão é exibida" style="rounded=1;whiteSpace=wrap;html=1;fillColor=#f8cecc;strokeColor=#b85450;" parent="1" vertex="1">
          <mxGeometry x="1015" y="485" width="255" height="30" as="geometry" />
        </mxCell>
        <mxCell id="crsZTfP_8VAFgFiVn4Fk-38" style="edgeStyle=orthogonalEdgeStyle;rounded=0;orthogonalLoop=1;jettySize=auto;html=1;exitX=1;exitY=0.5;exitDx=0;exitDy=0;entryX=0;entryY=0.25;entryDx=0;entryDy=0;" parent="1" source="crsZTfP_8VAFgFiVn4Fk-34" target="crsZTfP_8VAFgFiVn4Fk-35" edge="1">
          <mxGeometry relative="1" as="geometry" />
        </mxCell>
        <mxCell id="crsZTfP_8VAFgFiVn4Fk-39" style="edgeStyle=orthogonalEdgeStyle;rounded=0;orthogonalLoop=1;jettySize=auto;html=1;exitX=1;exitY=0.5;exitDx=0;exitDy=0;entryX=0;entryY=0.75;entryDx=0;entryDy=0;" parent="1" source="crsZTfP_8VAFgFiVn4Fk-34" target="crsZTfP_8VAFgFiVn4Fk-36" edge="1">
          <mxGeometry relative="1" as="geometry" />
        </mxCell>
        <mxCell id="crsZTfP_8VAFgFiVn4Fk-40" style="edgeStyle=orthogonalEdgeStyle;rounded=0;orthogonalLoop=1;jettySize=auto;html=1;exitX=1;exitY=0.5;exitDx=0;exitDy=0;entryX=0;entryY=0.5;entryDx=0;entryDy=0;" parent="1" source="crsZTfP_8VAFgFiVn4Fk-34" target="crsZTfP_8VAFgFiVn4Fk-37" edge="1">
          <mxGeometry relative="1" as="geometry">
            <Array as="points">
              <mxPoint x="1005" y="575" />
              <mxPoint x="1005" y="655" />
            </Array>
          </mxGeometry>
        </mxCell>
        <mxCell id="crsZTfP_8VAFgFiVn4Fk-34" value="Telefone" style="rounded=1;whiteSpace=wrap;html=1;fillColor=#d80073;strokeColor=#A50040;fontColor=#ffffff;" parent="1" vertex="1">
          <mxGeometry x="905" y="555" width="80" height="40" as="geometry" />
        </mxCell>
        <mxCell id="crsZTfP_8VAFgFiVn4Fk-35" value="Apenas números e o símbolo &quot;+&quot;" style="rounded=1;whiteSpace=wrap;html=1;fillColor=#f8cecc;strokeColor=#b85450;" parent="1" vertex="1">
          <mxGeometry x="1015" y="535" width="255" height="30" as="geometry" />
        </mxCell>
        <mxCell id="crsZTfP_8VAFgFiVn4Fk-36" value="Caracteres: &amp;gt;10&lt;div&gt;&amp;lt;12&lt;/div&gt;" style="rounded=1;whiteSpace=wrap;html=1;fillColor=#f8cecc;strokeColor=#b85450;" parent="1" vertex="1">
          <mxGeometry x="1015" y="582" width="255" height="30" as="geometry" />
        </mxCell>
        <mxCell id="crsZTfP_8VAFgFiVn4Fk-37" value="&lt;font style=&quot;font-size: 12px;&quot;&gt;Caso inserido incorretamente a mensagem &quot;Insira um número de telefone valido&quot; aparecera como erro.&lt;/font&gt;" style="rounded=1;whiteSpace=wrap;html=1;fillColor=#f8cecc;strokeColor=#b85450;" parent="1" vertex="1">
          <mxGeometry x="1015" y="625" width="245" height="45" as="geometry" />
        </mxCell>
        <mxCell id="crsZTfP_8VAFgFiVn4Fk-45" value="" style="edgeStyle=orthogonalEdgeStyle;rounded=0;orthogonalLoop=1;jettySize=auto;html=1;" parent="1" source="crsZTfP_8VAFgFiVn4Fk-43" target="crsZTfP_8VAFgFiVn4Fk-44" edge="1">
          <mxGeometry relative="1" as="geometry" />
        </mxCell>
        <mxCell id="crsZTfP_8VAFgFiVn4Fk-43" value="Botão Avançar" style="rounded=1;whiteSpace=wrap;html=1;fillColor=#f8cecc;strokeColor=#b85450;" parent="1" vertex="1">
          <mxGeometry x="775" y="565" width="75" height="40" as="geometry" />
        </mxCell>
        <mxCell id="rg2bOsuD-WNc4exFvBme-71" style="edgeStyle=orthogonalEdgeStyle;rounded=0;orthogonalLoop=1;jettySize=auto;html=1;exitX=1;exitY=0.5;exitDx=0;exitDy=0;" parent="1" source="crsZTfP_8VAFgFiVn4Fk-44" target="crsZTfP_8VAFgFiVn4Fk-58" edge="1">
          <mxGeometry relative="1" as="geometry" />
        </mxCell>
        <mxCell id="rg2bOsuD-WNc4exFvBme-75" style="edgeStyle=orthogonalEdgeStyle;rounded=0;orthogonalLoop=1;jettySize=auto;html=1;exitX=1;exitY=1;exitDx=0;exitDy=0;entryX=0.75;entryY=0;entryDx=0;entryDy=0;" parent="1" source="crsZTfP_8VAFgFiVn4Fk-44" target="rg2bOsuD-WNc4exFvBme-24" edge="1">
          <mxGeometry relative="1" as="geometry" />
        </mxCell>
        <mxCell id="rg2bOsuD-WNc4exFvBme-76" style="edgeStyle=orthogonalEdgeStyle;rounded=0;orthogonalLoop=1;jettySize=auto;html=1;exitX=0.25;exitY=1;exitDx=0;exitDy=0;entryX=1;entryY=0;entryDx=0;entryDy=0;" parent="1" source="crsZTfP_8VAFgFiVn4Fk-44" target="rg2bOsuD-WNc4exFvBme-28" edge="1">
          <mxGeometry relative="1" as="geometry" />
        </mxCell>
        <mxCell id="rg2bOsuD-WNc4exFvBme-84" style="edgeStyle=orthogonalEdgeStyle;rounded=0;orthogonalLoop=1;jettySize=auto;html=1;exitX=0;exitY=0.5;exitDx=0;exitDy=0;entryX=1;entryY=0.5;entryDx=0;entryDy=0;" parent="1" source="crsZTfP_8VAFgFiVn4Fk-44" target="rg2bOsuD-WNc4exFvBme-83" edge="1">
          <mxGeometry relative="1" as="geometry" />
        </mxCell>
        <mxCell id="crsZTfP_8VAFgFiVn4Fk-44" value="Locação" style="whiteSpace=wrap;html=1;fillColor=#f8cecc;strokeColor=#b85450;rounded=1;" parent="1" vertex="1">
          <mxGeometry x="775" y="640" width="77.5" height="40" as="geometry" />
        </mxCell>
        <mxCell id="crsZTfP_8VAFgFiVn4Fk-63" style="edgeStyle=orthogonalEdgeStyle;rounded=0;orthogonalLoop=1;jettySize=auto;html=1;exitX=1;exitY=0.5;exitDx=0;exitDy=0;entryX=0;entryY=0.5;entryDx=0;entryDy=0;" parent="1" source="crsZTfP_8VAFgFiVn4Fk-58" target="crsZTfP_8VAFgFiVn4Fk-62" edge="1">
          <mxGeometry relative="1" as="geometry" />
        </mxCell>
        <mxCell id="rg2bOsuD-WNc4exFvBme-6" style="edgeStyle=orthogonalEdgeStyle;rounded=0;orthogonalLoop=1;jettySize=auto;html=1;exitX=1;exitY=0.5;exitDx=0;exitDy=0;entryX=0;entryY=0.5;entryDx=0;entryDy=0;" parent="1" source="crsZTfP_8VAFgFiVn4Fk-58" target="rg2bOsuD-WNc4exFvBme-1" edge="1">
          <mxGeometry relative="1" as="geometry">
            <Array as="points">
              <mxPoint x="978" y="735" />
              <mxPoint x="978" y="788" />
              <mxPoint x="980" y="788" />
              <mxPoint x="980" y="840" />
            </Array>
          </mxGeometry>
        </mxCell>
        <mxCell id="rg2bOsuD-WNc4exFvBme-11" style="edgeStyle=orthogonalEdgeStyle;rounded=0;orthogonalLoop=1;jettySize=auto;html=1;exitX=1;exitY=0.5;exitDx=0;exitDy=0;entryX=0;entryY=0.75;entryDx=0;entryDy=0;" parent="1" source="crsZTfP_8VAFgFiVn4Fk-58" target="rg2bOsuD-WNc4exFvBme-10" edge="1">
          <mxGeometry relative="1" as="geometry" />
        </mxCell>
        <mxCell id="rg2bOsuD-WNc4exFvBme-19" style="edgeStyle=orthogonalEdgeStyle;rounded=0;orthogonalLoop=1;jettySize=auto;html=1;exitX=1;exitY=0.5;exitDx=0;exitDy=0;entryX=0;entryY=0.5;entryDx=0;entryDy=0;" parent="1" source="crsZTfP_8VAFgFiVn4Fk-58" target="rg2bOsuD-WNc4exFvBme-18" edge="1">
          <mxGeometry relative="1" as="geometry" />
        </mxCell>
        <mxCell id="crsZTfP_8VAFgFiVn4Fk-58" value="Campos" style="whiteSpace=wrap;html=1;fillColor=#f8cecc;strokeColor=#b85450;rounded=1;" parent="1" vertex="1">
          <mxGeometry x="880" y="715" width="77.5" height="40" as="geometry" />
        </mxCell>
        <mxCell id="crsZTfP_8VAFgFiVn4Fk-67" style="edgeStyle=orthogonalEdgeStyle;rounded=0;orthogonalLoop=1;jettySize=auto;html=1;exitX=1;exitY=0.5;exitDx=0;exitDy=0;entryX=0;entryY=0.5;entryDx=0;entryDy=0;" parent="1" source="crsZTfP_8VAFgFiVn4Fk-62" target="crsZTfP_8VAFgFiVn4Fk-66" edge="1">
          <mxGeometry relative="1" as="geometry" />
        </mxCell>
        <mxCell id="crsZTfP_8VAFgFiVn4Fk-76" style="edgeStyle=orthogonalEdgeStyle;rounded=0;orthogonalLoop=1;jettySize=auto;html=1;exitX=1;exitY=0.5;exitDx=0;exitDy=0;entryX=0;entryY=0.75;entryDx=0;entryDy=0;" parent="1" source="crsZTfP_8VAFgFiVn4Fk-62" target="crsZTfP_8VAFgFiVn4Fk-75" edge="1">
          <mxGeometry relative="1" as="geometry">
            <Array as="points">
              <mxPoint x="1070" y="735" />
              <mxPoint x="1070" y="800" />
            </Array>
          </mxGeometry>
        </mxCell>
        <mxCell id="crsZTfP_8VAFgFiVn4Fk-62" value="Data de entrega" style="whiteSpace=wrap;html=1;fillColor=#d80073;strokeColor=#A50040;rounded=1;fontColor=#ffffff;" parent="1" vertex="1">
          <mxGeometry x="1000" y="715" width="77.5" height="40" as="geometry" />
        </mxCell>
        <mxCell id="crsZTfP_8VAFgFiVn4Fk-71" style="edgeStyle=orthogonalEdgeStyle;rounded=0;orthogonalLoop=1;jettySize=auto;html=1;exitX=1;exitY=0.5;exitDx=0;exitDy=0;" parent="1" source="crsZTfP_8VAFgFiVn4Fk-66" target="crsZTfP_8VAFgFiVn4Fk-68" edge="1">
          <mxGeometry relative="1" as="geometry" />
        </mxCell>
        <mxCell id="crsZTfP_8VAFgFiVn4Fk-72" style="edgeStyle=orthogonalEdgeStyle;rounded=0;orthogonalLoop=1;jettySize=auto;html=1;exitX=1;exitY=0.5;exitDx=0;exitDy=0;entryX=0;entryY=0.75;entryDx=0;entryDy=0;" parent="1" source="crsZTfP_8VAFgFiVn4Fk-66" target="crsZTfP_8VAFgFiVn4Fk-69" edge="1">
          <mxGeometry relative="1" as="geometry">
            <Array as="points">
              <mxPoint x="1180" y="735" />
              <mxPoint x="1180" y="753" />
            </Array>
          </mxGeometry>
        </mxCell>
        <mxCell id="crsZTfP_8VAFgFiVn4Fk-66" value="Calendário Suspenso" style="whiteSpace=wrap;html=1;fillColor=#f8cecc;strokeColor=#b85450;rounded=1;" parent="1" vertex="1">
          <mxGeometry x="1098.75" y="715" width="77.5" height="40" as="geometry" />
        </mxCell>
        <mxCell id="crsZTfP_8VAFgFiVn4Fk-68" value="Apenas datas a partir do dia seguinte podem ser escolhidas" style="rounded=1;whiteSpace=wrap;html=1;fillColor=#f8cecc;strokeColor=#b85450;" parent="1" vertex="1">
          <mxGeometry x="1210" y="690" width="172.5" height="30" as="geometry" />
        </mxCell>
        <mxCell id="crsZTfP_8VAFgFiVn4Fk-69" value="O calendário abre no mês atual" style="rounded=1;whiteSpace=wrap;html=1;fillColor=#f8cecc;strokeColor=#b85450;" parent="1" vertex="1">
          <mxGeometry x="1210" y="730" width="172.5" height="30" as="geometry" />
        </mxCell>
        <mxCell id="crsZTfP_8VAFgFiVn4Fk-75" value="Não é possível inserir valores manualmente ." style="whiteSpace=wrap;html=1;fillColor=#f8cecc;strokeColor=#b85450;rounded=1;" parent="1" vertex="1">
          <mxGeometry x="1090" y="770" width="140" height="40" as="geometry" />
        </mxCell>
        <mxCell id="rg2bOsuD-WNc4exFvBme-4" style="edgeStyle=orthogonalEdgeStyle;rounded=0;orthogonalLoop=1;jettySize=auto;html=1;exitX=1;exitY=0.5;exitDx=0;exitDy=0;entryX=0;entryY=0.5;entryDx=0;entryDy=0;" parent="1" source="rg2bOsuD-WNc4exFvBme-1" target="rg2bOsuD-WNc4exFvBme-2" edge="1">
          <mxGeometry relative="1" as="geometry" />
        </mxCell>
        <mxCell id="rg2bOsuD-WNc4exFvBme-1" value="Período de locação" style="whiteSpace=wrap;html=1;fillColor=#d80073;strokeColor=#A50040;rounded=1;fontColor=#ffffff;" parent="1" vertex="1">
          <mxGeometry x="1000" y="820" width="77.5" height="40" as="geometry" />
        </mxCell>
        <mxCell id="rg2bOsuD-WNc4exFvBme-5" style="edgeStyle=orthogonalEdgeStyle;rounded=0;orthogonalLoop=1;jettySize=auto;html=1;exitX=1;exitY=0.5;exitDx=0;exitDy=0;entryX=0;entryY=0.5;entryDx=0;entryDy=0;" parent="1" source="rg2bOsuD-WNc4exFvBme-2" target="rg2bOsuD-WNc4exFvBme-3" edge="1">
          <mxGeometry relative="1" as="geometry" />
        </mxCell>
        <mxCell id="rg2bOsuD-WNc4exFvBme-2" value="&lt;div&gt;Lista suspensa&lt;/div&gt;" style="whiteSpace=wrap;html=1;fillColor=#f8cecc;strokeColor=#b85450;rounded=1;" parent="1" vertex="1">
          <mxGeometry x="1132.5" y="820" width="77.5" height="40" as="geometry" />
        </mxCell>
        <mxCell id="rg2bOsuD-WNc4exFvBme-3" value="É possível escolher entre 1 a 7 dias" style="whiteSpace=wrap;html=1;fillColor=#f8cecc;strokeColor=#b85450;rounded=1;" parent="1" vertex="1">
          <mxGeometry x="1260" y="820" width="110" height="40" as="geometry" />
        </mxCell>
        <mxCell id="rg2bOsuD-WNc4exFvBme-14" style="edgeStyle=orthogonalEdgeStyle;rounded=0;orthogonalLoop=1;jettySize=auto;html=1;exitX=1;exitY=0.5;exitDx=0;exitDy=0;entryX=0;entryY=0.5;entryDx=0;entryDy=0;" parent="1" source="rg2bOsuD-WNc4exFvBme-10" target="rg2bOsuD-WNc4exFvBme-13" edge="1">
          <mxGeometry relative="1" as="geometry" />
        </mxCell>
        <mxCell id="rg2bOsuD-WNc4exFvBme-10" value="Cor" style="whiteSpace=wrap;html=1;fillColor=#ffcccc;strokeColor=#36393d;rounded=1;" parent="1" vertex="1">
          <mxGeometry x="1000" y="870" width="77.5" height="40" as="geometry" />
        </mxCell>
        <mxCell id="rg2bOsuD-WNc4exFvBme-16" style="edgeStyle=orthogonalEdgeStyle;rounded=0;orthogonalLoop=1;jettySize=auto;html=1;exitX=1;exitY=0.5;exitDx=0;exitDy=0;entryX=0;entryY=0.5;entryDx=0;entryDy=0;" parent="1" source="rg2bOsuD-WNc4exFvBme-13" target="rg2bOsuD-WNc4exFvBme-15" edge="1">
          <mxGeometry relative="1" as="geometry" />
        </mxCell>
        <mxCell id="rg2bOsuD-WNc4exFvBme-13" value="Caixa de seleção" style="whiteSpace=wrap;html=1;fillColor=#f8cecc;strokeColor=#b85450;rounded=1;" parent="1" vertex="1">
          <mxGeometry x="1121.25" y="875" width="108.75" height="30" as="geometry" />
        </mxCell>
        <mxCell id="rg2bOsuD-WNc4exFvBme-15" value="É possível escolher entre preto e cinza" style="whiteSpace=wrap;html=1;fillColor=#f8cecc;strokeColor=#b85450;rounded=1;" parent="1" vertex="1">
          <mxGeometry x="1260" y="875" width="120" height="30" as="geometry" />
        </mxCell>
        <mxCell id="rg2bOsuD-WNc4exFvBme-21" style="edgeStyle=orthogonalEdgeStyle;rounded=0;orthogonalLoop=1;jettySize=auto;html=1;exitX=1;exitY=0.5;exitDx=0;exitDy=0;entryX=0;entryY=0.5;entryDx=0;entryDy=0;" parent="1" source="rg2bOsuD-WNc4exFvBme-18" target="rg2bOsuD-WNc4exFvBme-20" edge="1">
          <mxGeometry relative="1" as="geometry" />
        </mxCell>
        <mxCell id="rg2bOsuD-WNc4exFvBme-23" style="edgeStyle=orthogonalEdgeStyle;rounded=0;orthogonalLoop=1;jettySize=auto;html=1;exitX=1;exitY=0.5;exitDx=0;exitDy=0;entryX=0;entryY=0.5;entryDx=0;entryDy=0;" parent="1" source="rg2bOsuD-WNc4exFvBme-18" target="rg2bOsuD-WNc4exFvBme-22" edge="1">
          <mxGeometry relative="1" as="geometry" />
        </mxCell>
        <mxCell id="rg2bOsuD-WNc4exFvBme-18" value="Comentário" style="whiteSpace=wrap;html=1;fillColor=#ffcccc;strokeColor=#36393d;rounded=1;" parent="1" vertex="1">
          <mxGeometry x="1000" y="920" width="77.5" height="40" as="geometry" />
        </mxCell>
        <mxCell id="rg2bOsuD-WNc4exFvBme-20" value="Letras latinas, número, espaços, traços, barras, pontos e vírgulas." style="whiteSpace=wrap;html=1;fillColor=#f8cecc;strokeColor=#b85450;rounded=1;" parent="1" vertex="1">
          <mxGeometry x="1140" y="910" width="200" height="30" as="geometry" />
        </mxCell>
        <mxCell id="rg2bOsuD-WNc4exFvBme-22" value="Caracteres: 24&amp;lt;." style="whiteSpace=wrap;html=1;fillColor=#f8cecc;strokeColor=#b85450;rounded=1;" parent="1" vertex="1">
          <mxGeometry x="1140" y="950" width="200" height="30" as="geometry" />
        </mxCell>
        <mxCell id="rg2bOsuD-WNc4exFvBme-72" style="edgeStyle=orthogonalEdgeStyle;rounded=0;orthogonalLoop=1;jettySize=auto;html=1;exitX=1;exitY=0.5;exitDx=0;exitDy=0;" parent="1" source="rg2bOsuD-WNc4exFvBme-24" target="rg2bOsuD-WNc4exFvBme-26" edge="1">
          <mxGeometry relative="1" as="geometry" />
        </mxCell>
        <mxCell id="rg2bOsuD-WNc4exFvBme-24" value="Botão voltar" style="rounded=1;whiteSpace=wrap;html=1;fillColor=#f8cecc;strokeColor=#b85450;" parent="1" vertex="1">
          <mxGeometry x="810" y="750" width="55" height="40" as="geometry" />
        </mxCell>
        <mxCell id="rg2bOsuD-WNc4exFvBme-26" value="O usuário retorna a tela &quot;Para quem é a scooter&quot;. As informações inseridas são salvas." style="rounded=1;whiteSpace=wrap;html=1;fillColor=#f8cecc;strokeColor=#b85450;" parent="1" vertex="1">
          <mxGeometry x="873.75" y="810" width="90" height="95" as="geometry" />
        </mxCell>
        <mxCell id="rg2bOsuD-WNc4exFvBme-78" style="edgeStyle=orthogonalEdgeStyle;rounded=0;orthogonalLoop=1;jettySize=auto;html=1;exitX=0.5;exitY=1;exitDx=0;exitDy=0;entryX=0.5;entryY=0;entryDx=0;entryDy=0;" parent="1" source="rg2bOsuD-WNc4exFvBme-28" target="rg2bOsuD-WNc4exFvBme-77" edge="1">
          <mxGeometry relative="1" as="geometry" />
        </mxCell>
        <mxCell id="rg2bOsuD-WNc4exFvBme-80" style="edgeStyle=orthogonalEdgeStyle;rounded=0;orthogonalLoop=1;jettySize=auto;html=1;exitX=0.5;exitY=1;exitDx=0;exitDy=0;entryX=0.5;entryY=0;entryDx=0;entryDy=0;" parent="1" source="rg2bOsuD-WNc4exFvBme-28" target="rg2bOsuD-WNc4exFvBme-79" edge="1">
          <mxGeometry relative="1" as="geometry" />
        </mxCell>
        <mxCell id="rg2bOsuD-WNc4exFvBme-28" value="Botão fazer pedido" style="rounded=1;whiteSpace=wrap;html=1;fillColor=#f8cecc;strokeColor=#b85450;" parent="1" vertex="1">
          <mxGeometry x="740" y="750" width="55" height="40" as="geometry" />
        </mxCell>
        <mxCell id="rg2bOsuD-WNc4exFvBme-46" style="edgeStyle=orthogonalEdgeStyle;rounded=0;orthogonalLoop=1;jettySize=auto;html=1;exitX=0;exitY=0.5;exitDx=0;exitDy=0;entryX=1;entryY=0.5;entryDx=0;entryDy=0;" parent="1" source="rg2bOsuD-WNc4exFvBme-30" target="rg2bOsuD-WNc4exFvBme-33" edge="1">
          <mxGeometry relative="1" as="geometry">
            <Array as="points">
              <mxPoint x="230" y="770" />
              <mxPoint x="230" y="770" />
            </Array>
          </mxGeometry>
        </mxCell>
        <mxCell id="rg2bOsuD-WNc4exFvBme-50" style="edgeStyle=orthogonalEdgeStyle;rounded=0;orthogonalLoop=1;jettySize=auto;html=1;exitX=0;exitY=0.5;exitDx=0;exitDy=0;entryX=1;entryY=0.5;entryDx=0;entryDy=0;" parent="1" source="rg2bOsuD-WNc4exFvBme-30" target="rg2bOsuD-WNc4exFvBme-48" edge="1">
          <mxGeometry relative="1" as="geometry">
            <Array as="points">
              <mxPoint x="225" y="770" />
              <mxPoint x="225" y="820" />
            </Array>
          </mxGeometry>
        </mxCell>
        <mxCell id="rg2bOsuD-WNc4exFvBme-30" value="Status do pedido" style="rounded=1;whiteSpace=wrap;html=1;fillColor=#dae8fc;strokeColor=#6c8ebf;" parent="1" vertex="1">
          <mxGeometry x="245" y="750" width="80" height="40" as="geometry" />
        </mxCell>
        <mxCell id="rg2bOsuD-WNc4exFvBme-33" value="Dados do pedido do usuário" style="rounded=1;whiteSpace=wrap;html=1;fillColor=#dae8fc;strokeColor=#6c8ebf;" parent="1" vertex="1">
          <mxGeometry x="10" y="750" width="200" height="40" as="geometry" />
        </mxCell>
        <mxCell id="rg2bOsuD-WNc4exFvBme-52" style="edgeStyle=orthogonalEdgeStyle;rounded=0;orthogonalLoop=1;jettySize=auto;html=1;exitX=0;exitY=1;exitDx=0;exitDy=0;" parent="1" source="rg2bOsuD-WNc4exFvBme-48" edge="1">
          <mxGeometry relative="1" as="geometry">
            <mxPoint x="9.619047619047592" y="860" as="targetPoint" />
          </mxGeometry>
        </mxCell>
        <mxCell id="rg2bOsuD-WNc4exFvBme-55" style="edgeStyle=orthogonalEdgeStyle;rounded=0;orthogonalLoop=1;jettySize=auto;html=1;exitX=0.25;exitY=1;exitDx=0;exitDy=0;" parent="1" source="rg2bOsuD-WNc4exFvBme-48" edge="1">
          <mxGeometry relative="1" as="geometry">
            <mxPoint x="60.095238095238074" y="860" as="targetPoint" />
          </mxGeometry>
        </mxCell>
        <mxCell id="rg2bOsuD-WNc4exFvBme-57" style="edgeStyle=orthogonalEdgeStyle;rounded=0;orthogonalLoop=1;jettySize=auto;html=1;exitX=0.5;exitY=1;exitDx=0;exitDy=0;" parent="1" source="rg2bOsuD-WNc4exFvBme-48" edge="1">
          <mxGeometry relative="1" as="geometry">
            <mxPoint x="109.61904761904759" y="860" as="targetPoint" />
          </mxGeometry>
        </mxCell>
        <mxCell id="rg2bOsuD-WNc4exFvBme-59" style="edgeStyle=orthogonalEdgeStyle;rounded=0;orthogonalLoop=1;jettySize=auto;html=1;exitX=0.75;exitY=1;exitDx=0;exitDy=0;" parent="1" source="rg2bOsuD-WNc4exFvBme-48" edge="1">
          <mxGeometry relative="1" as="geometry">
            <mxPoint x="160.09523809523807" y="860" as="targetPoint" />
          </mxGeometry>
        </mxCell>
        <mxCell id="rg2bOsuD-WNc4exFvBme-48" value="Ordem de status do pedido." style="rounded=1;whiteSpace=wrap;html=1;fillColor=#dae8fc;strokeColor=#6c8ebf;" parent="1" vertex="1">
          <mxGeometry x="10" y="800" width="200" height="40" as="geometry" />
        </mxCell>
        <mxCell id="rg2bOsuD-WNc4exFvBme-53" value="&lt;font style=&quot;font-size: 12px;&quot;&gt;Scooter está no deposíto&lt;/font&gt;" style="rounded=1;whiteSpace=wrap;html=1;fillColor=#dae8fc;strokeColor=#6c8ebf;" parent="1" vertex="1">
          <mxGeometry x="10" y="860" width="30" height="40" as="geometry" />
        </mxCell>
        <mxCell id="rg2bOsuD-WNc4exFvBme-56" value="&lt;font style=&quot;font-size: 10px;&quot;&gt;O entregador está a caminho&lt;/font&gt;" style="rounded=1;whiteSpace=wrap;html=1;fillColor=#dae8fc;strokeColor=#6c8ebf;" parent="1" vertex="1">
          <mxGeometry x="60" y="860" width="30" height="40" as="geometry" />
        </mxCell>
        <mxCell id="rg2bOsuD-WNc4exFvBme-58" value="O entregador chegou" style="rounded=1;whiteSpace=wrap;html=1;fillColor=#dae8fc;strokeColor=#6c8ebf;" parent="1" vertex="1">
          <mxGeometry x="110" y="860" width="30" height="40" as="geometry" />
        </mxCell>
        <mxCell id="rg2bOsuD-WNc4exFvBme-60" value="Ok, vamos dar uma volta" style="rounded=1;whiteSpace=wrap;html=1;fillColor=#dae8fc;strokeColor=#6c8ebf;" parent="1" vertex="1">
          <mxGeometry x="160" y="860" width="30" height="40" as="geometry" />
        </mxCell>
        <mxCell id="rg2bOsuD-WNc4exFvBme-65" style="edgeStyle=orthogonalEdgeStyle;rounded=0;orthogonalLoop=1;jettySize=auto;html=1;exitX=0.5;exitY=1;exitDx=0;exitDy=0;entryX=0.5;entryY=0;entryDx=0;entryDy=0;" parent="1" source="rg2bOsuD-WNc4exFvBme-61" target="rg2bOsuD-WNc4exFvBme-64" edge="1">
          <mxGeometry relative="1" as="geometry" />
        </mxCell>
        <mxCell id="rg2bOsuD-WNc4exFvBme-61" value="Cancelar pedido" style="rounded=1;whiteSpace=wrap;html=1;fillColor=#dae8fc;strokeColor=#6c8ebf;" parent="1" vertex="1">
          <mxGeometry x="250" y="820" width="90" height="20" as="geometry" />
        </mxCell>
        <mxCell id="rg2bOsuD-WNc4exFvBme-63" style="edgeStyle=orthogonalEdgeStyle;rounded=0;orthogonalLoop=1;jettySize=auto;html=1;exitX=0.5;exitY=1;exitDx=0;exitDy=0;entryX=0.424;entryY=0.017;entryDx=0;entryDy=0;entryPerimeter=0;" parent="1" source="rg2bOsuD-WNc4exFvBme-30" target="rg2bOsuD-WNc4exFvBme-61" edge="1">
          <mxGeometry relative="1" as="geometry" />
        </mxCell>
        <mxCell id="rg2bOsuD-WNc4exFvBme-68" style="edgeStyle=orthogonalEdgeStyle;rounded=0;orthogonalLoop=1;jettySize=auto;html=1;exitX=0.25;exitY=1;exitDx=0;exitDy=0;entryX=0.5;entryY=0;entryDx=0;entryDy=0;" parent="1" source="rg2bOsuD-WNc4exFvBme-64" target="rg2bOsuD-WNc4exFvBme-67" edge="1">
          <mxGeometry relative="1" as="geometry" />
        </mxCell>
        <mxCell id="rg2bOsuD-WNc4exFvBme-64" value="Pop-up:&lt;div&gt;&quot; Deseja cancelar o pedido?&quot;&lt;/div&gt;" style="rounded=1;whiteSpace=wrap;html=1;fillColor=#dae8fc;strokeColor=#6c8ebf;" parent="1" vertex="1">
          <mxGeometry x="240" y="860" width="105" height="40" as="geometry" />
        </mxCell>
        <mxCell id="rg2bOsuD-WNc4exFvBme-67" value="Cancelar&amp;nbsp;" style="rounded=1;whiteSpace=wrap;html=1;fillColor=#dae8fc;strokeColor=#6c8ebf;" parent="1" vertex="1">
          <mxGeometry x="232.5" y="930" width="65" height="20" as="geometry" />
        </mxCell>
        <mxCell id="rg2bOsuD-WNc4exFvBme-69" value="Voltar" style="rounded=1;whiteSpace=wrap;html=1;fillColor=#dae8fc;strokeColor=#6c8ebf;" parent="1" vertex="1">
          <mxGeometry x="310" y="930" width="65" height="20" as="geometry" />
        </mxCell>
        <mxCell id="rg2bOsuD-WNc4exFvBme-70" style="edgeStyle=orthogonalEdgeStyle;rounded=0;orthogonalLoop=1;jettySize=auto;html=1;exitX=0.75;exitY=1;exitDx=0;exitDy=0;entryX=0.155;entryY=0.057;entryDx=0;entryDy=0;entryPerimeter=0;" parent="1" source="rg2bOsuD-WNc4exFvBme-64" target="rg2bOsuD-WNc4exFvBme-69" edge="1">
          <mxGeometry relative="1" as="geometry" />
        </mxCell>
        <mxCell id="rg2bOsuD-WNc4exFvBme-77" value="Exibe o número do pedido" style="rounded=1;whiteSpace=wrap;html=1;fillColor=#f8cecc;strokeColor=#b85450;" parent="1" vertex="1">
          <mxGeometry x="770" y="810" width="55" height="60" as="geometry" />
        </mxCell>
        <mxCell id="rg2bOsuD-WNc4exFvBme-79" value="Botão verificar status" style="rounded=1;whiteSpace=wrap;html=1;fillColor=#f8cecc;strokeColor=#b85450;" parent="1" vertex="1">
          <mxGeometry x="715" y="810" width="45" height="40" as="geometry" />
        </mxCell>
        <mxCell id="rg2bOsuD-WNc4exFvBme-81" value="Leva o usuário ao status do pedido" style="rounded=1;whiteSpace=wrap;html=1;fillColor=#f8cecc;strokeColor=#b85450;" parent="1" vertex="1">
          <mxGeometry x="715" y="880" width="115" height="40" as="geometry" />
        </mxCell>
        <mxCell id="rg2bOsuD-WNc4exFvBme-82" style="edgeStyle=orthogonalEdgeStyle;rounded=0;orthogonalLoop=1;jettySize=auto;html=1;exitX=0.5;exitY=1;exitDx=0;exitDy=0;entryX=0.197;entryY=-0.09;entryDx=0;entryDy=0;entryPerimeter=0;" parent="1" source="rg2bOsuD-WNc4exFvBme-79" target="rg2bOsuD-WNc4exFvBme-81" edge="1">
          <mxGeometry relative="1" as="geometry" />
        </mxCell>
        <mxCell id="rg2bOsuD-WNc4exFvBme-105" style="edgeStyle=orthogonalEdgeStyle;rounded=0;orthogonalLoop=1;jettySize=auto;html=1;exitX=0.25;exitY=0;exitDx=0;exitDy=0;entryX=1;entryY=0.5;entryDx=0;entryDy=0;" parent="1" source="rg2bOsuD-WNc4exFvBme-83" target="rg2bOsuD-WNc4exFvBme-85" edge="1">
          <mxGeometry relative="1" as="geometry" />
        </mxCell>
        <mxCell id="rg2bOsuD-WNc4exFvBme-83" value="Verificar Status" style="rounded=1;whiteSpace=wrap;html=1;fillColor=#ffcccc;strokeColor=#36393d;" parent="1" vertex="1">
          <mxGeometry x="677.5" y="640" width="80" height="40" as="geometry" />
        </mxCell>
        <mxCell id="rg2bOsuD-WNc4exFvBme-96" style="edgeStyle=orthogonalEdgeStyle;rounded=0;orthogonalLoop=1;jettySize=auto;html=1;exitX=0.25;exitY=1;exitDx=0;exitDy=0;" parent="1" source="rg2bOsuD-WNc4exFvBme-85" edge="1">
          <mxGeometry relative="1" as="geometry">
            <mxPoint x="600" y="565" as="targetPoint" />
          </mxGeometry>
        </mxCell>
        <mxCell id="rg2bOsuD-WNc4exFvBme-98" style="edgeStyle=orthogonalEdgeStyle;rounded=0;orthogonalLoop=1;jettySize=auto;html=1;exitX=0;exitY=0.75;exitDx=0;exitDy=0;entryX=1;entryY=0.5;entryDx=0;entryDy=0;" parent="1" source="rg2bOsuD-WNc4exFvBme-85" target="rg2bOsuD-WNc4exFvBme-88" edge="1">
          <mxGeometry relative="1" as="geometry" />
        </mxCell>
        <mxCell id="rg2bOsuD-WNc4exFvBme-111" style="edgeStyle=orthogonalEdgeStyle;rounded=0;orthogonalLoop=1;jettySize=auto;html=1;exitX=0.5;exitY=1;exitDx=0;exitDy=0;" parent="1" source="rg2bOsuD-WNc4exFvBme-85" target="rg2bOsuD-WNc4exFvBme-110" edge="1">
          <mxGeometry relative="1" as="geometry">
            <Array as="points">
              <mxPoint x="630" y="660" />
              <mxPoint x="605" y="660" />
            </Array>
          </mxGeometry>
        </mxCell>
        <mxCell id="rg2bOsuD-WNc4exFvBme-135" style="edgeStyle=orthogonalEdgeStyle;rounded=0;orthogonalLoop=1;jettySize=auto;html=1;exitX=0.75;exitY=1;exitDx=0;exitDy=0;" parent="1" source="rg2bOsuD-WNc4exFvBme-85" edge="1">
          <mxGeometry relative="1" as="geometry">
            <mxPoint x="650" y="800" as="targetPoint" />
          </mxGeometry>
        </mxCell>
        <mxCell id="rg2bOsuD-WNc4exFvBme-85" value="Status do pedido" style="rounded=1;whiteSpace=wrap;html=1;fillColor=#ffcccc;strokeColor=#36393d;" parent="1" vertex="1">
          <mxGeometry x="590" y="490" width="80" height="40" as="geometry" />
        </mxCell>
        <mxCell id="rg2bOsuD-WNc4exFvBme-99" style="edgeStyle=orthogonalEdgeStyle;rounded=0;orthogonalLoop=1;jettySize=auto;html=1;exitX=0.25;exitY=1;exitDx=0;exitDy=0;entryX=0.75;entryY=0;entryDx=0;entryDy=0;" parent="1" source="rg2bOsuD-WNc4exFvBme-88" target="rg2bOsuD-WNc4exFvBme-91" edge="1">
          <mxGeometry relative="1" as="geometry" />
        </mxCell>
        <mxCell id="rg2bOsuD-WNc4exFvBme-88" value="Número do pedido" style="rounded=1;whiteSpace=wrap;html=1;fillColor=#ffcccc;strokeColor=#36393d;" parent="1" vertex="1">
          <mxGeometry x="465" y="505" width="80" height="30" as="geometry" />
        </mxCell>
        <mxCell id="rg2bOsuD-WNc4exFvBme-91" value="Deve ser inserido um número de pedido válido" style="rounded=1;whiteSpace=wrap;html=1;fillColor=#ffcccc;strokeColor=#36393d;" parent="1" vertex="1">
          <mxGeometry x="445" y="550" width="60" height="80" as="geometry" />
        </mxCell>
        <mxCell id="rg2bOsuD-WNc4exFvBme-93" value="Se inserido um número de pedido inexistente, é exibido erro." style="rounded=1;whiteSpace=wrap;html=1;fillColor=#ffcccc;strokeColor=#36393d;" parent="1" vertex="1">
          <mxGeometry x="515" y="550" width="60" height="80" as="geometry" />
        </mxCell>
        <mxCell id="rg2bOsuD-WNc4exFvBme-106" style="edgeStyle=orthogonalEdgeStyle;rounded=0;orthogonalLoop=1;jettySize=auto;html=1;exitX=0.25;exitY=1;exitDx=0;exitDy=0;entryX=1;entryY=0.5;entryDx=0;entryDy=0;" parent="1" source="rg2bOsuD-WNc4exFvBme-97" target="rg2bOsuD-WNc4exFvBme-103" edge="1">
          <mxGeometry relative="1" as="geometry" />
        </mxCell>
        <mxCell id="rg2bOsuD-WNc4exFvBme-97" value="Dados do pedido do usuário" style="rounded=1;whiteSpace=wrap;html=1;fillColor=#ffcccc;strokeColor=#36393d;" parent="1" vertex="1">
          <mxGeometry x="580" y="565" width="45" height="80" as="geometry" />
        </mxCell>
        <mxCell id="rg2bOsuD-WNc4exFvBme-101" style="edgeStyle=orthogonalEdgeStyle;rounded=0;orthogonalLoop=1;jettySize=auto;html=1;exitX=0.75;exitY=1;exitDx=0;exitDy=0;entryX=0.133;entryY=0.038;entryDx=0;entryDy=0;entryPerimeter=0;" parent="1" source="rg2bOsuD-WNc4exFvBme-88" target="rg2bOsuD-WNc4exFvBme-93" edge="1">
          <mxGeometry relative="1" as="geometry" />
        </mxCell>
        <mxCell id="rg2bOsuD-WNc4exFvBme-103" value="Exibe informações do usuário e do pedido" style="rounded=1;whiteSpace=wrap;html=1;fillColor=#ffcccc;strokeColor=#36393d;" parent="1" vertex="1">
          <mxGeometry x="420" y="645" width="140" height="25" as="geometry" />
        </mxCell>
        <mxCell id="rg2bOsuD-WNc4exFvBme-121" style="edgeStyle=orthogonalEdgeStyle;rounded=0;orthogonalLoop=1;jettySize=auto;html=1;exitX=0;exitY=0;exitDx=0;exitDy=0;entryX=1;entryY=0.25;entryDx=0;entryDy=0;" parent="1" source="rg2bOsuD-WNc4exFvBme-110" target="rg2bOsuD-WNc4exFvBme-113" edge="1">
          <mxGeometry relative="1" as="geometry" />
        </mxCell>
        <mxCell id="rg2bOsuD-WNc4exFvBme-126" style="edgeStyle=orthogonalEdgeStyle;rounded=0;orthogonalLoop=1;jettySize=auto;html=1;exitX=0;exitY=0.25;exitDx=0;exitDy=0;" parent="1" source="rg2bOsuD-WNc4exFvBme-110" target="rg2bOsuD-WNc4exFvBme-122" edge="1">
          <mxGeometry relative="1" as="geometry" />
        </mxCell>
        <mxCell id="rg2bOsuD-WNc4exFvBme-131" style="edgeStyle=orthogonalEdgeStyle;rounded=0;orthogonalLoop=1;jettySize=auto;html=1;exitX=0;exitY=0.5;exitDx=0;exitDy=0;entryX=1;entryY=0.75;entryDx=0;entryDy=0;" parent="1" source="rg2bOsuD-WNc4exFvBme-110" target="rg2bOsuD-WNc4exFvBme-127" edge="1">
          <mxGeometry relative="1" as="geometry">
            <Array as="points">
              <mxPoint x="570" y="760" />
              <mxPoint x="550" y="760" />
            </Array>
          </mxGeometry>
        </mxCell>
        <mxCell id="rg2bOsuD-WNc4exFvBme-132" style="edgeStyle=orthogonalEdgeStyle;rounded=0;orthogonalLoop=1;jettySize=auto;html=1;exitX=0;exitY=1;exitDx=0;exitDy=0;entryX=1;entryY=0.75;entryDx=0;entryDy=0;" parent="1" source="rg2bOsuD-WNc4exFvBme-110" target="rg2bOsuD-WNc4exFvBme-130" edge="1">
          <mxGeometry relative="1" as="geometry">
            <Array as="points">
              <mxPoint x="570" y="800" />
              <mxPoint x="550" y="800" />
            </Array>
          </mxGeometry>
        </mxCell>
        <mxCell id="rg2bOsuD-WNc4exFvBme-110" value="Ordem de status de pedido" style="rounded=1;whiteSpace=wrap;html=1;fillColor=#ffcccc;strokeColor=#36393d;" parent="1" vertex="1">
          <mxGeometry x="570" y="690" width="70" height="100" as="geometry" />
        </mxCell>
        <mxCell id="rg2bOsuD-WNc4exFvBme-120" style="edgeStyle=orthogonalEdgeStyle;rounded=0;orthogonalLoop=1;jettySize=auto;html=1;exitX=0;exitY=0.5;exitDx=0;exitDy=0;entryX=1;entryY=0.5;entryDx=0;entryDy=0;" parent="1" source="rg2bOsuD-WNc4exFvBme-113" target="rg2bOsuD-WNc4exFvBme-115" edge="1">
          <mxGeometry relative="1" as="geometry" />
        </mxCell>
        <mxCell id="rg2bOsuD-WNc4exFvBme-113" value="&lt;font style=&quot;font-size: 8px;&quot;&gt;A scooter esta no depósito&lt;/font&gt;" style="rounded=1;whiteSpace=wrap;html=1;fillColor=#ffcccc;strokeColor=#36393d;" parent="1" vertex="1">
          <mxGeometry x="490" y="685" width="60" height="30" as="geometry" />
        </mxCell>
        <mxCell id="rg2bOsuD-WNc4exFvBme-115" value="&lt;font style=&quot;font-size: 7px;&quot;&gt;Fica ativo quando um usuário faz um pedido&lt;/font&gt;" style="rounded=1;whiteSpace=wrap;html=1;fillColor=#ffcccc;strokeColor=#36393d;" parent="1" vertex="1">
          <mxGeometry x="400" y="685" width="77.5" height="30" as="geometry" />
        </mxCell>
        <mxCell id="rg2bOsuD-WNc4exFvBme-124" style="edgeStyle=orthogonalEdgeStyle;rounded=0;orthogonalLoop=1;jettySize=auto;html=1;exitX=0;exitY=0.5;exitDx=0;exitDy=0;entryX=1;entryY=0.5;entryDx=0;entryDy=0;" parent="1" source="rg2bOsuD-WNc4exFvBme-122" target="rg2bOsuD-WNc4exFvBme-123" edge="1">
          <mxGeometry relative="1" as="geometry" />
        </mxCell>
        <mxCell id="rg2bOsuD-WNc4exFvBme-125" style="edgeStyle=orthogonalEdgeStyle;rounded=0;orthogonalLoop=1;jettySize=auto;html=1;exitX=1;exitY=0;exitDx=0;exitDy=0;" parent="1" source="rg2bOsuD-WNc4exFvBme-122" edge="1">
          <mxGeometry relative="1" as="geometry">
            <mxPoint x="550.0645161290322" y="719.9354838709677" as="targetPoint" />
          </mxGeometry>
        </mxCell>
        <mxCell id="rg2bOsuD-WNc4exFvBme-122" value="&lt;span style=&quot;font-size: 8px;&quot;&gt;O entregador está a caminho&lt;/span&gt;" style="rounded=1;whiteSpace=wrap;html=1;fillColor=#ffcccc;strokeColor=#36393d;" parent="1" vertex="1">
          <mxGeometry x="490" y="720" width="60" height="30" as="geometry" />
        </mxCell>
        <mxCell id="rg2bOsuD-WNc4exFvBme-123" value="&lt;span style=&quot;font-size: 7px;&quot;&gt;Fica ativo quando o entregador confirma o pedido&lt;/span&gt;" style="rounded=1;whiteSpace=wrap;html=1;fillColor=#ffcccc;strokeColor=#36393d;" parent="1" vertex="1">
          <mxGeometry x="400" y="720" width="77.5" height="30" as="geometry" />
        </mxCell>
        <mxCell id="rg2bOsuD-WNc4exFvBme-129" style="edgeStyle=orthogonalEdgeStyle;rounded=0;orthogonalLoop=1;jettySize=auto;html=1;exitX=0;exitY=0.5;exitDx=0;exitDy=0;entryX=1;entryY=0;entryDx=0;entryDy=0;" parent="1" source="rg2bOsuD-WNc4exFvBme-127" target="rg2bOsuD-WNc4exFvBme-128" edge="1">
          <mxGeometry relative="1" as="geometry" />
        </mxCell>
        <mxCell id="rg2bOsuD-WNc4exFvBme-127" value="&lt;span style=&quot;font-size: 8px;&quot;&gt;O entregador chegou&lt;/span&gt;" style="rounded=1;whiteSpace=wrap;html=1;fillColor=#ffcccc;strokeColor=#36393d;" parent="1" vertex="1">
          <mxGeometry x="490" y="755" width="60" height="30" as="geometry" />
        </mxCell>
        <mxCell id="rg2bOsuD-WNc4exFvBme-128" value="&lt;span style=&quot;font-size: 8px;&quot;&gt;Fica ativo se o entregador aperta o botão &quot;Concluido&quot;&lt;/span&gt;" style="rounded=1;whiteSpace=wrap;html=1;fillColor=#ffcccc;strokeColor=#36393d;" parent="1" vertex="1">
          <mxGeometry x="350" y="800" width="85" height="40" as="geometry" />
        </mxCell>
        <mxCell id="rg2bOsuD-WNc4exFvBme-134" style="edgeStyle=orthogonalEdgeStyle;rounded=0;orthogonalLoop=1;jettySize=auto;html=1;exitX=0;exitY=0.5;exitDx=0;exitDy=0;entryX=1;entryY=0.5;entryDx=0;entryDy=0;" parent="1" source="rg2bOsuD-WNc4exFvBme-130" target="rg2bOsuD-WNc4exFvBme-133" edge="1">
          <mxGeometry relative="1" as="geometry" />
        </mxCell>
        <mxCell id="rg2bOsuD-WNc4exFvBme-130" value="&lt;span style=&quot;font-size: 8px;&quot;&gt;Ok vamos dar uma volta&lt;/span&gt;" style="rounded=1;whiteSpace=wrap;html=1;fillColor=#ffcccc;strokeColor=#36393d;" parent="1" vertex="1">
          <mxGeometry x="490" y="790" width="60" height="30" as="geometry" />
        </mxCell>
        <mxCell id="rg2bOsuD-WNc4exFvBme-133" value="&lt;span style=&quot;font-size: 8px;&quot;&gt;Fica ativo se o entregador confirmar a finalização da entrega&lt;/span&gt;" style="rounded=1;whiteSpace=wrap;html=1;fillColor=#ffcccc;strokeColor=#36393d;" parent="1" vertex="1">
          <mxGeometry x="352.5" y="850" width="85" height="40" as="geometry" />
        </mxCell>
        <mxCell id="rg2bOsuD-WNc4exFvBme-142" style="edgeStyle=orthogonalEdgeStyle;rounded=0;orthogonalLoop=1;jettySize=auto;html=1;exitX=0.75;exitY=1;exitDx=0;exitDy=0;entryX=0.5;entryY=0;entryDx=0;entryDy=0;" parent="1" source="rg2bOsuD-WNc4exFvBme-136" target="rg2bOsuD-WNc4exFvBme-141" edge="1">
          <mxGeometry relative="1" as="geometry" />
        </mxCell>
        <mxCell id="rg2bOsuD-WNc4exFvBme-136" value="Cancelar pedido" style="rounded=1;whiteSpace=wrap;html=1;fillColor=#ffcccc;strokeColor=#36393d;" parent="1" vertex="1">
          <mxGeometry x="622.5" y="800" width="55" height="50" as="geometry" />
        </mxCell>
        <mxCell id="rg2bOsuD-WNc4exFvBme-140" style="edgeStyle=orthogonalEdgeStyle;rounded=0;orthogonalLoop=1;jettySize=auto;html=1;exitX=0.5;exitY=1;exitDx=0;exitDy=0;entryX=0.5;entryY=0;entryDx=0;entryDy=0;" parent="1" source="rg2bOsuD-WNc4exFvBme-137" target="rg2bOsuD-WNc4exFvBme-139" edge="1">
          <mxGeometry relative="1" as="geometry" />
        </mxCell>
        <mxCell id="rg2bOsuD-WNc4exFvBme-137" value="Voltar" style="rounded=1;whiteSpace=wrap;html=1;fillColor=#ffcccc;strokeColor=#36393d;" parent="1" vertex="1">
          <mxGeometry x="620" y="915" width="65" height="20" as="geometry" />
        </mxCell>
        <mxCell id="rg2bOsuD-WNc4exFvBme-139" value="Volta ao status do pedido" style="rounded=1;whiteSpace=wrap;html=1;fillColor=#f8cecc;strokeColor=#b85450;" parent="1" vertex="1">
          <mxGeometry x="602.5" y="940" width="100" height="30" as="geometry" />
        </mxCell>
        <mxCell id="rg2bOsuD-WNc4exFvBme-144" style="edgeStyle=orthogonalEdgeStyle;rounded=0;orthogonalLoop=1;jettySize=auto;html=1;exitX=0;exitY=0.5;exitDx=0;exitDy=0;" parent="1" source="rg2bOsuD-WNc4exFvBme-141" edge="1">
          <mxGeometry relative="1" as="geometry">
            <mxPoint x="590.0000000000002" y="884.8947368421054" as="targetPoint" />
          </mxGeometry>
        </mxCell>
        <mxCell id="rg2bOsuD-WNc4exFvBme-141" value="Abre um pop-up" style="rounded=1;whiteSpace=wrap;html=1;fillColor=#ffcccc;strokeColor=#36393d;" parent="1" vertex="1">
          <mxGeometry x="625" y="860" width="55" height="50" as="geometry" />
        </mxCell>
        <mxCell id="rg2bOsuD-WNc4exFvBme-143" style="edgeStyle=orthogonalEdgeStyle;rounded=0;orthogonalLoop=1;jettySize=auto;html=1;exitX=0.5;exitY=1;exitDx=0;exitDy=0;" parent="1" source="rg2bOsuD-WNc4exFvBme-139" target="rg2bOsuD-WNc4exFvBme-139" edge="1">
          <mxGeometry relative="1" as="geometry" />
        </mxCell>
        <mxCell id="rg2bOsuD-WNc4exFvBme-147" value="" style="edgeStyle=orthogonalEdgeStyle;rounded=0;orthogonalLoop=1;jettySize=auto;html=1;" parent="1" source="rg2bOsuD-WNc4exFvBme-145" target="rg2bOsuD-WNc4exFvBme-146" edge="1">
          <mxGeometry relative="1" as="geometry" />
        </mxCell>
        <mxCell id="rg2bOsuD-WNc4exFvBme-145" value="Cancelar&amp;nbsp;" style="rounded=1;whiteSpace=wrap;html=1;fillColor=#ffcccc;strokeColor=#36393d;" parent="1" vertex="1">
          <mxGeometry x="525" y="875" width="65" height="20" as="geometry" />
        </mxCell>
        <mxCell id="rg2bOsuD-WNc4exFvBme-149" style="edgeStyle=orthogonalEdgeStyle;rounded=0;orthogonalLoop=1;jettySize=auto;html=1;exitX=0;exitY=0.25;exitDx=0;exitDy=0;" parent="1" source="rg2bOsuD-WNc4exFvBme-146" edge="1">
          <mxGeometry relative="1" as="geometry">
            <mxPoint x="510.0000000000002" y="921.7368421052631" as="targetPoint" />
          </mxGeometry>
        </mxCell>
        <mxCell id="rg2bOsuD-WNc4exFvBme-146" value="Pedido cancelado" style="whiteSpace=wrap;html=1;fillColor=#ffcccc;strokeColor=#36393d;rounded=1;" parent="1" vertex="1">
          <mxGeometry x="526.25" y="915" width="62.5" height="25" as="geometry" />
        </mxCell>
        <mxCell id="rg2bOsuD-WNc4exFvBme-151" style="edgeStyle=orthogonalEdgeStyle;rounded=0;orthogonalLoop=1;jettySize=auto;html=1;exitX=0;exitY=0.5;exitDx=0;exitDy=0;entryX=1;entryY=0.5;entryDx=0;entryDy=0;" parent="1" source="rg2bOsuD-WNc4exFvBme-148" target="rg2bOsuD-WNc4exFvBme-150" edge="1">
          <mxGeometry relative="1" as="geometry" />
        </mxCell>
        <mxCell id="rg2bOsuD-WNc4exFvBme-148" value="OK" style="whiteSpace=wrap;html=1;fillColor=#ffcccc;strokeColor=#36393d;rounded=1;" parent="1" vertex="1">
          <mxGeometry x="465" y="917.5" width="40" height="20" as="geometry" />
        </mxCell>
        <mxCell id="rg2bOsuD-WNc4exFvBme-150" value="Volta a pagina inicial" style="whiteSpace=wrap;html=1;fillColor=#ffcccc;strokeColor=#36393d;rounded=1;" parent="1" vertex="1">
          <mxGeometry x="390" y="912.5" width="62.5" height="25" as="geometry" />
        </mxCell>
      </root>
    </mxGraphModel>
  </diagram>
</mxfile>
